<mxfile host="Electron" agent="Mozilla/5.0 (Windows NT 10.0; Win64; x64) AppleWebKit/537.36 (KHTML, like Gecko) draw.io/26.0.16 Chrome/132.0.6834.196 Electron/34.2.0 Safari/537.36" version="26.0.16">
  <diagram name="Page-1" id="EXUUknry4EixfEBFSW-V">
    <mxGraphModel dx="867" dy="597" grid="0" gridSize="10" guides="1" tooltips="1" connect="1" arrows="1" fold="1" page="1" pageScale="1" pageWidth="1169" pageHeight="827" math="0" shadow="0">
      <root>
        <mxCell id="0" />
        <mxCell id="1" parent="0" />
        <mxCell id="y_cZfdV3owpzlUH5pemg-28" value="" style="rounded=0;whiteSpace=wrap;html=1;rotation=-30;fillColor=#f5f5f5;fontColor=#333333;strokeColor=#666666;" vertex="1" parent="1">
          <mxGeometry x="554" y="77.5" width="132" height="131" as="geometry" />
        </mxCell>
        <mxCell id="y_cZfdV3owpzlUH5pemg-21" value="" style="rounded=0;whiteSpace=wrap;html=1;rotation=97;fillColor=#dae8fc;strokeColor=#6c8ebf;container=0;" vertex="1" parent="1">
          <mxGeometry x="508" y="110" width="80" height="40" as="geometry" />
        </mxCell>
        <mxCell id="y_cZfdV3owpzlUH5pemg-22" value="" style="rounded=0;whiteSpace=wrap;html=1;rotation=97;fillColor=#dae8fc;strokeColor=#6c8ebf;container=0;" vertex="1" parent="1">
          <mxGeometry x="468" y="105" width="80" height="40" as="geometry" />
        </mxCell>
        <mxCell id="y_cZfdV3owpzlUH5pemg-23" value="" style="rounded=0;whiteSpace=wrap;html=1;rotation=97;fillColor=#dae8fc;strokeColor=#6c8ebf;container=0;" vertex="1" parent="1">
          <mxGeometry x="428" y="100" width="80" height="40" as="geometry" />
        </mxCell>
        <mxCell id="y_cZfdV3owpzlUH5pemg-24" value="" style="rounded=0;whiteSpace=wrap;html=1;rotation=97;fillColor=#dae8fc;strokeColor=#6c8ebf;container=0;" vertex="1" parent="1">
          <mxGeometry x="388" y="95" width="80" height="40" as="geometry" />
        </mxCell>
        <mxCell id="y_cZfdV3owpzlUH5pemg-8" value="" style="rounded=0;whiteSpace=wrap;html=1;rotation=45;" vertex="1" parent="1">
          <mxGeometry x="560" y="410" width="120" height="84.57" as="geometry" />
        </mxCell>
        <mxCell id="y_cZfdV3owpzlUH5pemg-2" value="" style="rounded=0;whiteSpace=wrap;html=1;" vertex="1" parent="1">
          <mxGeometry x="280" y="410" width="120" height="120" as="geometry" />
        </mxCell>
        <mxCell id="y_cZfdV3owpzlUH5pemg-1" value="" style="ellipse;whiteSpace=wrap;html=1;rotation=45;" vertex="1" parent="1">
          <mxGeometry x="270" y="374" width="220" height="80" as="geometry" />
        </mxCell>
        <mxCell id="y_cZfdV3owpzlUH5pemg-3" value="" style="rounded=0;whiteSpace=wrap;html=1;" vertex="1" parent="1">
          <mxGeometry x="240" y="530" width="200" height="30" as="geometry" />
        </mxCell>
        <mxCell id="y_cZfdV3owpzlUH5pemg-13" value="" style="group;rotation=97;fillColor=#f5f5f5;fontColor=#333333;strokeColor=#666666;container=0;" vertex="1" connectable="0" parent="1">
          <mxGeometry x="716" y="82" width="80" height="160" as="geometry" />
        </mxCell>
        <mxCell id="y_cZfdV3owpzlUH5pemg-26" value="" style="ellipse;whiteSpace=wrap;html=1;aspect=fixed;" vertex="1" parent="1">
          <mxGeometry x="610" y="133" width="20" height="20" as="geometry" />
        </mxCell>
        <mxCell id="y_cZfdV3owpzlUH5pemg-9" value="" style="rounded=0;whiteSpace=wrap;html=1;rotation=97;container=0;fillColor=#dae8fc;strokeColor=#6c8ebf;" vertex="1" parent="1">
          <mxGeometry x="775" y="149" width="80" height="40" as="geometry" />
        </mxCell>
        <mxCell id="y_cZfdV3owpzlUH5pemg-10" value="" style="rounded=0;whiteSpace=wrap;html=1;rotation=97;container=0;fillColor=#dae8fc;strokeColor=#6c8ebf;" vertex="1" parent="1">
          <mxGeometry x="735" y="144" width="80" height="40" as="geometry" />
        </mxCell>
        <mxCell id="y_cZfdV3owpzlUH5pemg-11" value="" style="rounded=0;whiteSpace=wrap;html=1;rotation=97;container=0;fillColor=#dae8fc;strokeColor=#6c8ebf;" vertex="1" parent="1">
          <mxGeometry x="695" y="139" width="80" height="40" as="geometry" />
        </mxCell>
        <mxCell id="y_cZfdV3owpzlUH5pemg-12" value="" style="rounded=0;whiteSpace=wrap;html=1;rotation=97;container=0;fillColor=#dae8fc;strokeColor=#6c8ebf;" vertex="1" parent="1">
          <mxGeometry x="655" y="134" width="80" height="40" as="geometry" />
        </mxCell>
        <mxCell id="y_cZfdV3owpzlUH5pemg-27" value="" style="ellipse;whiteSpace=wrap;html=1;aspect=fixed;rotation=30;strokeWidth=3;" vertex="1" parent="1">
          <mxGeometry x="559" y="82" width="122" height="122" as="geometry" />
        </mxCell>
        <mxCell id="y_cZfdV3owpzlUH5pemg-29" value="" style="ellipse;whiteSpace=wrap;html=1;aspect=fixed;fillColor=#f5f5f5;fontColor=#333333;strokeColor=#666666;" vertex="1" parent="1">
          <mxGeometry x="610" y="133" width="20" height="20" as="geometry" />
        </mxCell>
        <mxCell id="y_cZfdV3owpzlUH5pemg-30" value="" style="endArrow=none;html=1;rounded=0;exitX=0;exitY=1;exitDx=0;exitDy=0;entryX=0;entryY=0;entryDx=0;entryDy=0;strokeWidth=2;" edge="1" parent="1" source="y_cZfdV3owpzlUH5pemg-12" target="y_cZfdV3owpzlUH5pemg-9">
          <mxGeometry width="50" height="50" relative="1" as="geometry">
            <mxPoint x="706" y="185" as="sourcePoint" />
            <mxPoint x="756" y="135" as="targetPoint" />
          </mxGeometry>
        </mxCell>
        <mxCell id="y_cZfdV3owpzlUH5pemg-31" value="" style="endArrow=none;html=1;rounded=0;exitX=0;exitY=1;exitDx=0;exitDy=0;entryX=0;entryY=0;entryDx=0;entryDy=0;strokeWidth=2;" edge="1" parent="1" source="y_cZfdV3owpzlUH5pemg-24" target="y_cZfdV3owpzlUH5pemg-21">
          <mxGeometry width="50" height="50" relative="1" as="geometry">
            <mxPoint x="690" y="122" as="sourcePoint" />
            <mxPoint x="850" y="142" as="targetPoint" />
          </mxGeometry>
        </mxCell>
        <mxCell id="y_cZfdV3owpzlUH5pemg-32" value="" style="endArrow=none;html=1;rounded=0;entryX=1;entryY=0;entryDx=0;entryDy=0;exitX=1;exitY=1;exitDx=0;exitDy=0;strokeWidth=2;" edge="1" parent="1" source="y_cZfdV3owpzlUH5pemg-12" target="y_cZfdV3owpzlUH5pemg-9">
          <mxGeometry width="50" height="50" relative="1" as="geometry">
            <mxPoint x="681" y="230" as="sourcePoint" />
            <mxPoint x="731" y="180" as="targetPoint" />
          </mxGeometry>
        </mxCell>
        <mxCell id="y_cZfdV3owpzlUH5pemg-33" value="" style="endArrow=none;html=1;rounded=0;entryX=0;entryY=0;entryDx=0;entryDy=0;exitX=1;exitY=0;exitDx=0;exitDy=0;" edge="1" parent="1" source="y_cZfdV3owpzlUH5pemg-9" target="y_cZfdV3owpzlUH5pemg-9">
          <mxGeometry width="50" height="50" relative="1" as="geometry">
            <mxPoint x="651" y="221" as="sourcePoint" />
            <mxPoint x="701" y="171" as="targetPoint" />
          </mxGeometry>
        </mxCell>
        <mxCell id="y_cZfdV3owpzlUH5pemg-34" value="" style="endArrow=none;html=1;rounded=0;entryX=0;entryY=1;entryDx=0;entryDy=0;exitX=1;exitY=1;exitDx=0;exitDy=0;" edge="1" parent="1" source="y_cZfdV3owpzlUH5pemg-24" target="y_cZfdV3owpzlUH5pemg-24">
          <mxGeometry width="50" height="50" relative="1" as="geometry">
            <mxPoint x="566" y="221" as="sourcePoint" />
            <mxPoint x="616" y="171" as="targetPoint" />
          </mxGeometry>
        </mxCell>
        <mxCell id="y_cZfdV3owpzlUH5pemg-35" value="" style="endArrow=none;html=1;rounded=0;exitX=1;exitY=1;exitDx=0;exitDy=0;entryX=1;entryY=0;entryDx=0;entryDy=0;strokeWidth=2;" edge="1" parent="1" source="y_cZfdV3owpzlUH5pemg-24" target="y_cZfdV3owpzlUH5pemg-21">
          <mxGeometry width="50" height="50" relative="1" as="geometry">
            <mxPoint x="566" y="221" as="sourcePoint" />
            <mxPoint x="616" y="171" as="targetPoint" />
          </mxGeometry>
        </mxCell>
        <mxCell id="y_cZfdV3owpzlUH5pemg-36" value="" style="rounded=0;whiteSpace=wrap;html=1;rotation=-80;" vertex="1" parent="1">
          <mxGeometry x="383" y="416" width="125" height="10" as="geometry" />
        </mxCell>
        <mxCell id="y_cZfdV3owpzlUH5pemg-37" value="" style="rounded=0;whiteSpace=wrap;html=1;rotation=0;" vertex="1" parent="1">
          <mxGeometry x="312" y="349" width="138" height="10" as="geometry" />
        </mxCell>
        <mxCell id="y_cZfdV3owpzlUH5pemg-38" value="" style="rounded=0;whiteSpace=wrap;html=1;rotation=-30;" vertex="1" parent="1">
          <mxGeometry x="383" y="369" width="72" height="10" as="geometry" />
        </mxCell>
        <mxCell id="y_cZfdV3owpzlUH5pemg-4" value="" style="rounded=0;whiteSpace=wrap;html=1;rotation=-45;" vertex="1" parent="1">
          <mxGeometry x="349.3" y="395" width="119.39" height="10" as="geometry" />
        </mxCell>
        <mxCell id="y_cZfdV3owpzlUH5pemg-5" value="" style="ellipse;whiteSpace=wrap;html=1;aspect=fixed;" vertex="1" parent="1">
          <mxGeometry x="444.39" y="344" width="20" height="20" as="geometry" />
        </mxCell>
      </root>
    </mxGraphModel>
  </diagram>
</mxfile>
